<?xml version="1.0" encoding="UTF-8" standalone="no"?>
<svg
   width="16.303936mm"
   height="16.548409mm"
   viewBox="0 0 16.303937 16.548409"
   version="1.1"
   id="svg5"
   inkscape:version="1.1-alpha (b0f32e08fc, 2021-03-07)"
   sodipodi:docname="settings.svg"
   xmlns:inkscape="http://www.inkscape.org/namespaces/inkscape"
   xmlns:sodipodi="http://sodipodi.sourceforge.net/DTD/sodipodi-0.dtd"
   xmlns="http://www.w3.org/2000/svg"
   xmlns:svg="http://www.w3.org/2000/svg">
  <sodipodi:namedview
     id="namedview7"
     pagecolor="#ffffff"
     bordercolor="#666666"
     borderopacity="1.0"
     objecttolerance="10.0"
     gridtolerance="10.0"
     guidetolerance="10.0"
     inkscape:pageshadow="2"
     inkscape:pageopacity="0.0"
     inkscape:pagecheckerboard="0"
     inkscape:document-units="mm"
     showgrid="false"
     inkscape:zoom="4.2532751"
     inkscape:cx="-41.732546"
     inkscape:cy="41.967659"
     inkscape:window-width="1848"
     inkscape:window-height="1016"
     inkscape:window-x="72"
     inkscape:window-y="27"
     inkscape:window-maximized="1"
     inkscape:current-layer="layer1"
     inkscape:snap-others="false"
     fit-margin-top="0.1"
     fit-margin-right="0.1"
     fit-margin-bottom="0.1"
     fit-margin-left="0.1" />
  <defs
     id="defs2" />
  <g
     inkscape:label="Layer 1"
     inkscape:groupmode="layer"
     id="layer1"
     style="display:inline"
     transform="translate(-86.699353,-53.971583)">
    <path
       id="path914"
       style="fill:#fff;fill-opacity:1;stroke:none;stroke-width:0.264583px;stroke-linecap:butt;stroke-linejoin:miter;stroke-opacity:1"
       inkscape:transform-center-y="-7.0565799"
       d="M 93.952921,54.071633 93.755,55.875142 a 6.4693593,6.4693593 0 0 0 -1.75028,0.583427 l -1.230934,-1.354439 -1.454174,1.056783 0.904854,1.584399 a 6.4693593,6.4693593 0 0 0 -1.094507,1.488797 l -1.775084,-0.368969 -0.555522,1.708941 1.647444,0.743106 a 6.4693593,6.4693593 0 0 0 -0.08165,0.932243 6.4693593,6.4693593 0 0 0 0.08113,0.925523 l -1.646928,0.742075 0.555522,1.709457 1.771467,-0.367938 a 6.4693593,6.4693593 0 0 0 1.095539,1.492933 l -0.902269,1.579231 1.454174,1.056267 1.225764,-1.348237 a 6.4693593,6.4693593 0 0 0 1.755966,0.58601 l 0.197405,1.79524 h 1.797304 l 0.197406,-1.798341 a 6.4693593,6.4693593 0 0 0 1.731161,-0.58756 l 0.0186,-0.0021 1.231966,1.355471 1.453666,-1.056783 -0.907963,-1.590082 0.01447,-0.03152 A 6.4693593,6.4693593 0 0 0 100.537,65.270404 l 0.0181,-0.01654 1.79317,0.372586 0.55501,-1.708941 -1.66967,-0.752925 -0.007,-0.03359 a 6.4693593,6.4693593 0 0 0 0.077,-0.8816 6.4693593,6.4693593 0 0 0 -0.0692,-0.922941 l 1.66864,-0.751893 -0.55501,-1.709457 -1.7911,0.372071 a 6.4693593,6.4693593 0 0 0 -1.080039,-1.489832 l 0.906399,-1.586466 -1.454168,-1.056266 -1.225765,1.347721 a 6.4693593,6.4693593 0 0 0 -1.754933,-0.575159 l -0.198438,-1.805575 z m 0.8816,3.507798 a 4.6701392,4.6701392 0 0 1 4.669999,4.669999 4.6701392,4.6701392 0 0 1 -4.669999,4.670515 4.6701392,4.6701392 0 0 1 -4.669999,-4.670515 4.6701392,4.6701392 0 0 1 4.669999,-4.669999 z" />
    <circle
       style="display:inline;fill:#fff;fill-opacity:1;stroke:none;stroke-width:0.529167;stroke-linejoin:round;stroke-opacity:1"
       id="circle12597"
       cx="94.834518"
       cy="62.249687"
       r="1.7568086" />
  </g>
</svg>
